<svg width="20" height="20" viewBox="0 0 20 20" fill="none" xmlns="http://www.w3.org/2000/svg">
<path d="M15.7143 7.85715H4.28575C3.49678 7.85715 2.85718 8.49675 2.85718 9.28572V17.8571C2.85718 18.6461 3.49678 19.2857 4.28575 19.2857H15.7143C16.5033 19.2857 17.1429 18.6461 17.1429 17.8571V9.28572C17.1429 8.49675 16.5033 7.85715 15.7143 7.85715Z" stroke="white" stroke-linecap="round" stroke-linejoin="round"/>
<path d="M15 7.85714V5.71429C15 4.3882 14.4733 3.11643 13.5355 2.17876C12.5979 1.24107 11.3261 0.714287 10 0.714287C8.67391 0.714287 7.40214 1.24107 6.46447 2.17876C5.52679 3.11643 5 4.3882 5 5.71429V7.85714" stroke="white" stroke-linecap="round" stroke-linejoin="round"/>
<path d="M9.99993 14.2857C10.3944 14.2857 10.7142 13.9659 10.7142 13.5714C10.7142 13.1769 10.3944 12.8571 9.99993 12.8571C9.60544 12.8571 9.28564 13.1769 9.28564 13.5714C9.28564 13.9659 9.60544 14.2857 9.99993 14.2857Z" stroke="white" stroke-linecap="round" stroke-linejoin="round"/>
</svg>
