<svg width="21" height="21" viewBox="0 0 21 21" fill="none" xmlns="http://www.w3.org/2000/svg">
<path d="M7.84506 3.375L8.49006 1.71C8.59884 1.4281 8.79023 1.18562 9.03914 1.01432C9.28806 0.843021 9.5829 0.750893 9.88506 0.75H11.1151C11.4172 0.750893 11.7121 0.843021 11.961 1.01432C12.2099 1.18562 12.4013 1.4281 12.5101 1.71L13.1551 3.375L15.345 4.635L17.115 4.365C17.4097 4.325 17.7098 4.37351 17.9769 4.50438C18.2439 4.63526 18.466 4.84257 18.615 5.1L19.215 6.15C19.3688 6.41153 19.4397 6.71352 19.4183 7.01613C19.3968 7.31874 19.2841 7.60775 19.095 7.845L18 9.24V11.76L19.125 13.155C19.3142 13.3923 19.4268 13.6813 19.4482 13.9839C19.4697 14.2865 19.3987 14.5885 19.245 14.85L18.645 15.9C18.4961 16.1574 18.2739 16.3647 18.0069 16.4957C17.7397 16.6265 17.4398 16.6751 17.145 16.635L15.375 16.365L13.1851 17.625L12.5401 19.29C12.4313 19.5719 12.2399 19.8144 11.991 19.9857C11.7421 20.157 11.4472 20.2491 11.1451 20.25H9.88506C9.5829 20.2491 9.28806 20.157 9.03914 19.9857C8.79023 19.8144 8.59884 19.5719 8.49006 19.29L7.84506 17.625L5.65506 16.365L3.88506 16.635C3.59034 16.6751 3.29037 16.6265 3.02328 16.4957C2.75621 16.3647 2.53406 16.1574 2.38506 15.9L1.78506 14.85C1.63131 14.5885 1.56048 14.2865 1.5819 13.9839C1.60332 13.6813 1.716 13.3923 1.90506 13.155L3.00006 11.76V9.24L1.87506 7.845C1.686 7.60775 1.57332 7.31874 1.5519 7.01613C1.53048 6.71352 1.60131 6.41153 1.75506 6.15L2.35506 5.1C2.50406 4.84257 2.72621 4.63526 2.99328 4.50438C3.26037 4.37351 3.56034 4.325 3.85506 4.365L5.62506 4.635L7.84506 3.375ZM7.50006 10.5C7.50006 11.0933 7.67601 11.6734 8.00565 12.1667C8.33531 12.6601 8.80383 13.0446 9.35201 13.2716C9.9002 13.4987 10.5034 13.5581 11.0853 13.4424C11.6673 13.3266 12.2018 13.0409 12.6214 12.6213C13.0409 12.2018 13.3267 11.6672 13.4424 11.0853C13.5582 10.5033 13.4988 9.90014 13.2717 9.35195C13.0446 8.80377 12.6601 8.33523 12.1668 8.00559C11.6734 7.67595 11.0934 7.5 10.5001 7.5C9.70442 7.5 8.94135 7.81607 8.37875 8.37869C7.81614 8.94129 7.50006 9.70436 7.50006 10.5Z" stroke="white" stroke-linecap="round" stroke-linejoin="round"/>
</svg>
